# xmcd
#
# Track frame offsets: 
#        150
#        19087
#        35337
#        56482
#        72432
#        85832
#        104317
#        118337
#        136235
#        152147
#
# Disc length: 2281 seconds
#
# Revision: 0
# Processed by: cddbd v1.4PL0 Copyright (c) Steve Scherf et al.
# Submitted via: ExactAudioCopy v0.90b3
#
DISCID=8308e70a
DTITLE=Matthew Blagg - Hymns
DYEAR=1998
DGENRE=Gospel
TTITLE0=What a Friend We Have in Jesus
TTITLE1=Leaning on the Everlasting Arms
TTITLE2=Oh, How I Love Jesus
TTITLE3=Amazing Grace
TTITLE4=Jesus Loves Me
TTITLE5=When the Roll Is Called Up Yonder
TTITLE6=I Surrender All
TTITLE7=Sweet Hour of Prayer
TTITLE8=Just When I Need Him Most
TTITLE9=There is a Fountain
EXTD=
EXTT0=
EXTT1=
EXTT2=
EXTT3=
EXTT4=
EXTT5=
EXTT6=
EXTT7=
EXTT8=
EXTT9=
PLAYORDER=
